# xmcd
#
# Track frame offsets: 
#        150
#        28777
#        60652
#        86492
#        126040
#
# Disc length: 2136 seconds
#
# Revision: 2
# Processed by: cddbd v1.5.2PL0 Copyright (c) Steve Scherf et al.
# Submitted via: ExactAudioCopy v0.95b4
#
DISCID=39085605
DTITLE=Thad Jones - The Magnificent Thad Jones Vol.3
DYEAR=1957
DGENRE=Jazz
TTITLE0=Slipped Again
TTITLE1=Ill Wind
TTITLE2=Thadrack
TTITLE3=Let's
TTITLE4=I've Got A Crush On You
EXTD=YEAR: 1957
EXTT0=
EXTT1=
EXTT2=
EXTT3=
EXTT4=
PLAYORDER=
